<mxfile host="app.diagrams.net" modified="2023-07-12T20:11:28.065Z" agent="Mozilla/5.0 (Windows NT 10.0; Win64; x64) AppleWebKit/537.36 (KHTML, like Gecko) Chrome/114.0.0.0 Safari/537.36" etag="AFVGTUcOou8pOf2LCGL0" version="21.6.2" type="github">
  <diagram name="Page-1" id="2YBvvXClWsGukQMizWep">
    <mxGraphModel dx="1050" dy="541" grid="1" gridSize="10" guides="1" tooltips="1" connect="1" arrows="1" fold="1" page="1" pageScale="1" pageWidth="850" pageHeight="1100" math="0" shadow="0">
      <root>
        <mxCell id="0" />
        <mxCell id="1" parent="0" />
        <mxCell id="ugCp9fuCtaGo95dE2X0F-9" value="" style="edgeStyle=orthogonalEdgeStyle;rounded=0;orthogonalLoop=1;jettySize=auto;html=1;" edge="1" parent="1" source="ugCp9fuCtaGo95dE2X0F-1" target="ugCp9fuCtaGo95dE2X0F-8">
          <mxGeometry relative="1" as="geometry">
            <Array as="points">
              <mxPoint x="445" y="160" />
              <mxPoint x="445" y="160" />
            </Array>
          </mxGeometry>
        </mxCell>
        <mxCell id="ugCp9fuCtaGo95dE2X0F-1" value="&lt;font style=&quot;font-size: 13px;&quot;&gt;Design a Land prototype/Experimental land. Make the land have a slope 0f 30Â°&lt;/font&gt;" style="rounded=0;whiteSpace=wrap;html=1;" vertex="1" parent="1">
          <mxGeometry x="310" y="40" width="270" height="90" as="geometry" />
        </mxCell>
        <mxCell id="ugCp9fuCtaGo95dE2X0F-12" value="" style="edgeStyle=orthogonalEdgeStyle;rounded=0;orthogonalLoop=1;jettySize=auto;html=1;" edge="1" parent="1" source="ugCp9fuCtaGo95dE2X0F-8" target="ugCp9fuCtaGo95dE2X0F-11">
          <mxGeometry relative="1" as="geometry" />
        </mxCell>
        <mxCell id="ugCp9fuCtaGo95dE2X0F-14" value="" style="edgeStyle=orthogonalEdgeStyle;rounded=0;orthogonalLoop=1;jettySize=auto;html=1;" edge="1" parent="1" source="ugCp9fuCtaGo95dE2X0F-8" target="ugCp9fuCtaGo95dE2X0F-13">
          <mxGeometry relative="1" as="geometry" />
        </mxCell>
        <mxCell id="ugCp9fuCtaGo95dE2X0F-18" value="" style="edgeStyle=orthogonalEdgeStyle;rounded=0;orthogonalLoop=1;jettySize=auto;html=1;" edge="1" parent="1" source="ugCp9fuCtaGo95dE2X0F-8" target="ugCp9fuCtaGo95dE2X0F-17">
          <mxGeometry relative="1" as="geometry">
            <Array as="points">
              <mxPoint x="445" y="230" />
              <mxPoint x="445" y="230" />
            </Array>
          </mxGeometry>
        </mxCell>
        <mxCell id="ugCp9fuCtaGo95dE2X0F-8" value="" style="shape=waypoint;sketch=0;size=6;pointerEvents=1;points=[];fillColor=default;resizable=0;rotatable=0;perimeter=centerPerimeter;snapToPoint=1;rounded=0;" vertex="1" parent="1">
          <mxGeometry x="435" y="170" width="20" height="20" as="geometry" />
        </mxCell>
        <mxCell id="ugCp9fuCtaGo95dE2X0F-20" value="" style="edgeStyle=orthogonalEdgeStyle;rounded=0;orthogonalLoop=1;jettySize=auto;html=1;" edge="1" parent="1" source="ugCp9fuCtaGo95dE2X0F-11" target="ugCp9fuCtaGo95dE2X0F-19">
          <mxGeometry relative="1" as="geometry" />
        </mxCell>
        <mxCell id="ugCp9fuCtaGo95dE2X0F-11" value="" style="shape=waypoint;sketch=0;size=6;pointerEvents=1;points=[];fillColor=default;resizable=0;rotatable=0;perimeter=centerPerimeter;snapToPoint=1;rounded=0;" vertex="1" parent="1">
          <mxGeometry x="710" y="170" width="20" height="20" as="geometry" />
        </mxCell>
        <mxCell id="ugCp9fuCtaGo95dE2X0F-16" value="" style="edgeStyle=orthogonalEdgeStyle;rounded=0;orthogonalLoop=1;jettySize=auto;html=1;" edge="1" parent="1" source="ugCp9fuCtaGo95dE2X0F-13" target="ugCp9fuCtaGo95dE2X0F-15">
          <mxGeometry relative="1" as="geometry">
            <Array as="points">
              <mxPoint x="160" y="250" />
              <mxPoint x="160" y="250" />
            </Array>
          </mxGeometry>
        </mxCell>
        <mxCell id="ugCp9fuCtaGo95dE2X0F-13" value="" style="shape=waypoint;sketch=0;size=6;pointerEvents=1;points=[];fillColor=default;resizable=0;rotatable=0;perimeter=centerPerimeter;snapToPoint=1;rounded=0;" vertex="1" parent="1">
          <mxGeometry x="150" y="170" width="20" height="20" as="geometry" />
        </mxCell>
        <mxCell id="ugCp9fuCtaGo95dE2X0F-24" value="" style="edgeStyle=orthogonalEdgeStyle;rounded=0;orthogonalLoop=1;jettySize=auto;html=1;" edge="1" parent="1" source="ugCp9fuCtaGo95dE2X0F-15" target="ugCp9fuCtaGo95dE2X0F-23">
          <mxGeometry relative="1" as="geometry" />
        </mxCell>
        <mxCell id="ugCp9fuCtaGo95dE2X0F-15" value="&lt;font style=&quot;font-size: 13px;&quot;&gt;To simulate rain, water is poured onto the land prototype until a landslide occurs. Note the value of soil moisture content that this occurs.&lt;/font&gt;" style="whiteSpace=wrap;html=1;sketch=0;rounded=0;" vertex="1" parent="1">
          <mxGeometry x="80" y="250" width="180" height="100" as="geometry" />
        </mxCell>
        <mxCell id="ugCp9fuCtaGo95dE2X0F-26" value="" style="edgeStyle=orthogonalEdgeStyle;rounded=0;orthogonalLoop=1;jettySize=auto;html=1;" edge="1" parent="1" source="ugCp9fuCtaGo95dE2X0F-17" target="ugCp9fuCtaGo95dE2X0F-25">
          <mxGeometry relative="1" as="geometry" />
        </mxCell>
        <mxCell id="ugCp9fuCtaGo95dE2X0F-17" value="&lt;font style=&quot;font-size: 13px;&quot;&gt;To simulate vibration due to seismic activity, the land prototype is shaken with varying levels of vibration intensity until a landslide occurs. Note the value of vibration intensity that this occurs.&lt;/font&gt;" style="whiteSpace=wrap;html=1;sketch=0;rounded=0;" vertex="1" parent="1">
          <mxGeometry x="337.5" y="250" width="215" height="100" as="geometry" />
        </mxCell>
        <mxCell id="ugCp9fuCtaGo95dE2X0F-28" value="" style="edgeStyle=orthogonalEdgeStyle;rounded=0;orthogonalLoop=1;jettySize=auto;html=1;" edge="1" parent="1" source="ugCp9fuCtaGo95dE2X0F-19" target="ugCp9fuCtaGo95dE2X0F-27">
          <mxGeometry relative="1" as="geometry" />
        </mxCell>
        <mxCell id="ugCp9fuCtaGo95dE2X0F-19" value="&lt;font style=&quot;font-size: 13px;&quot;&gt;Simulate both rain and vibration until a landslide occurs. Note the value of both the soil moisture content and vibration level that this occurs.&lt;/font&gt;" style="whiteSpace=wrap;html=1;sketch=0;rounded=0;" vertex="1" parent="1">
          <mxGeometry x="635" y="250" width="170" height="100" as="geometry" />
        </mxCell>
        <mxCell id="ugCp9fuCtaGo95dE2X0F-23" value="" style="shape=waypoint;sketch=0;size=6;pointerEvents=1;points=[];fillColor=default;resizable=0;rotatable=0;perimeter=centerPerimeter;snapToPoint=1;rounded=0;" vertex="1" parent="1">
          <mxGeometry x="160" y="390" width="20" height="20" as="geometry" />
        </mxCell>
        <mxCell id="ugCp9fuCtaGo95dE2X0F-38" value="" style="edgeStyle=orthogonalEdgeStyle;rounded=0;orthogonalLoop=1;jettySize=auto;html=1;" edge="1" parent="1" source="ugCp9fuCtaGo95dE2X0F-25" target="ugCp9fuCtaGo95dE2X0F-37">
          <mxGeometry relative="1" as="geometry" />
        </mxCell>
        <mxCell id="ugCp9fuCtaGo95dE2X0F-25" value="" style="shape=waypoint;sketch=0;size=6;pointerEvents=1;points=[];fillColor=default;resizable=0;rotatable=0;perimeter=centerPerimeter;snapToPoint=1;rounded=0;" vertex="1" parent="1">
          <mxGeometry x="435" y="390" width="20" height="20" as="geometry" />
        </mxCell>
        <mxCell id="ugCp9fuCtaGo95dE2X0F-27" value="" style="shape=waypoint;sketch=0;size=6;pointerEvents=1;points=[];fillColor=default;resizable=0;rotatable=0;perimeter=centerPerimeter;snapToPoint=1;rounded=0;" vertex="1" parent="1">
          <mxGeometry x="710" y="390" width="20" height="20" as="geometry" />
        </mxCell>
        <mxCell id="ugCp9fuCtaGo95dE2X0F-35" value="" style="endArrow=none;html=1;rounded=0;exitX=0.5;exitY=0.5;exitDx=0;exitDy=0;exitPerimeter=0;entryX=0.8;entryY=0.27;entryDx=0;entryDy=0;entryPerimeter=0;" edge="1" parent="1" source="ugCp9fuCtaGo95dE2X0F-23" target="ugCp9fuCtaGo95dE2X0F-27">
          <mxGeometry width="50" height="50" relative="1" as="geometry">
            <mxPoint x="420" y="490" as="sourcePoint" />
            <mxPoint x="470" y="440" as="targetPoint" />
          </mxGeometry>
        </mxCell>
        <mxCell id="ugCp9fuCtaGo95dE2X0F-40" value="" style="edgeStyle=orthogonalEdgeStyle;rounded=0;orthogonalLoop=1;jettySize=auto;html=1;" edge="1" parent="1" source="ugCp9fuCtaGo95dE2X0F-37" target="ugCp9fuCtaGo95dE2X0F-39">
          <mxGeometry relative="1" as="geometry" />
        </mxCell>
        <mxCell id="ugCp9fuCtaGo95dE2X0F-37" value="&lt;font style=&quot;font-size: 13px;&quot;&gt;Have a graphical representation of how the three modules above change with time. Have the threshold values on the graphs too, to show when we are approaching danger.&lt;/font&gt;" style="whiteSpace=wrap;html=1;sketch=0;rounded=0;" vertex="1" parent="1">
          <mxGeometry x="160" y="470" width="570" height="60" as="geometry" />
        </mxCell>
        <mxCell id="ugCp9fuCtaGo95dE2X0F-42" value="" style="edgeStyle=orthogonalEdgeStyle;rounded=0;orthogonalLoop=1;jettySize=auto;html=1;" edge="1" parent="1" source="ugCp9fuCtaGo95dE2X0F-39" target="ugCp9fuCtaGo95dE2X0F-41">
          <mxGeometry relative="1" as="geometry" />
        </mxCell>
        <mxCell id="ugCp9fuCtaGo95dE2X0F-39" value="&lt;font style=&quot;font-size: 13px;&quot;&gt;Algorithm that checks on these parameters and gives out a trigger.&lt;/font&gt;" style="whiteSpace=wrap;html=1;sketch=0;rounded=0;" vertex="1" parent="1">
          <mxGeometry x="350" y="610" width="190" height="60" as="geometry" />
        </mxCell>
        <mxCell id="ugCp9fuCtaGo95dE2X0F-41" value="&lt;font style=&quot;font-size: 13px;&quot;&gt;The trigger will be an alert system such as a GSM.&amp;nbsp;&lt;/font&gt;" style="whiteSpace=wrap;html=1;sketch=0;rounded=0;" vertex="1" parent="1">
          <mxGeometry x="385" y="750" width="120" height="60" as="geometry" />
        </mxCell>
      </root>
    </mxGraphModel>
  </diagram>
</mxfile>
